<?xml version="1.0" encoding="UTF-8"?>
<svg xmlns="http://www.w3.org/2000/svg" id="Layer_1" data-name="Layer 1" viewBox="0 0 24 24">
  <path d="M8.133,19.264c.159,1.938,.853,3.736,3.876,3.736s3.719-1.802,3.878-3.744c-1.165,.181-2.451,.27-3.892,.27-1.43,0-2.707-.086-3.862-.261Z" fill="#FFFFFF"/>
  <path d="M12.01,1C6.547,1,3.286,4.275,3.286,9.761c0,4.767,2.854,6.688,4.555,7.408,.018,.008,.94,.273,3.188,.341v-5.538c-.594-.209-1.182-.609-1.778-1.208-.39-.391-.388-1.024,.003-1.414,.392-.391,1.024-.389,1.415,.003,1.03,1.035,1.608,1.084,2.685,0,.392-.391,1.023-.393,1.415-.003,.391,.39,.393,1.023,.003,1.414-.417,.418-1.002,.934-1.742,1.201v5.543c2.415-.119,3.136-.339,3.15-.345,1.693-.721,4.535-2.642,4.535-7.402,0-5.567-3.173-8.761-8.704-8.761Z" fill="#FFFFFF"/>
</svg>
