<svg width="72" height="72" viewBox="0 0 72 72" fill="none" xmlns="http://www.w3.org/2000/svg">
<path d="M63.03 27.747L49.641 30.348L60.948 22.722C64.647 19.593 64.881 13.971 61.455 10.545C58.029 7.119 52.407 7.353 49.278 11.052L41.619 22.524L44.253 8.97C44.655 4.143 40.845 0 36 0C31.155 0 27.345 4.14 27.747 8.97L30.444 22.5L22.722 11.052C19.593 7.353 13.971 7.119 10.545 10.545C7.119 13.971 7.353 19.593 11.052 22.722L22.524 30.381L8.97 27.747C4.143 27.345 0 31.155 0 36C0 40.845 4.14 44.655 8.97 44.253L22.668 41.523L11.052 49.278C7.353 52.407 7.119 58.029 10.545 61.455C13.971 64.881 19.593 64.647 22.722 60.948L30.444 49.5L27.747 63.03C27.345 67.857 31.155 72 36 72C40.845 72 44.655 67.86 44.253 63.03L41.619 49.476L49.278 60.948C52.407 64.647 58.029 64.881 61.455 61.455C64.881 58.029 64.647 52.407 60.948 49.278L49.5 41.556L63.03 44.253C67.857 44.655 72 40.845 72 36C72 31.155 67.86 27.345 63.03 27.747ZM36 43.5C31.857 43.5 28.5 40.143 28.5 36C28.5 31.857 31.857 28.5 36 28.5C40.143 28.5 43.5 31.857 43.5 36C43.5 40.143 40.143 43.5 36 43.5Z" fill="white"/>
</svg>
