<svg width="72" height="74" viewBox="0 0 72 74" fill="none" xmlns="http://www.w3.org/2000/svg">
<path d="M27.9318 71.6228C27.1099 73.1428 25.5769 74 23.996 74C23.255 74 22.5081 73.8119 21.8151 73.4203C7.94967 65.5024 0 52.2257 0 37.0003C0 16.598 16.1483 0.000568132 35.9985 0.000568132C37.7204 0.000568132 39.4514 0.126984 41.1373 0.376732C43.5972 0.737479 45.3041 3.08388 44.9501 5.60911C44.5961 8.14051 42.3252 9.91033 39.8563 9.528C38.5934 9.33991 37.2944 9.24741 35.9955 9.24741C21.1131 9.2505 8.99963 21.6978 8.99963 37.0003C8.99963 48.7693 15.2634 59.0953 26.1859 65.3297C28.3578 66.5692 29.1408 69.3843 27.9348 71.6197L27.9318 71.6228ZM66.5402 27.7997C64.0803 28.1604 62.3704 30.5038 62.7244 33.0321C62.9074 34.3332 62.9974 35.6683 62.9974 37.0003C62.9974 45.501 56.2687 52.4168 47.998 52.4168C40.2013 52.4168 33.6316 46.17 33.0436 38.1904C32.8546 35.6467 30.6767 33.7351 28.2168 33.9293C25.7389 34.1236 23.882 36.3466 24.071 38.8934C25.016 51.6645 35.5275 61.6668 48.001 61.6668C61.2334 61.6668 72 50.6008 72 37.0003C72 35.2305 71.877 33.4545 71.634 31.7186C71.28 29.1903 69.0091 27.4174 66.5402 27.7997ZM39.0764 29.4308V32.3753C39.0764 33.2263 39.7483 33.917 40.5763 33.917H43.4412C46.888 33.917 50.1969 32.5079 52.6328 30.0043L69.7771 12.3831C72.327 9.76233 72.816 5.48886 70.5331 2.6183C67.9082 -0.680844 63.1654 -0.862759 60.3065 2.07564L42.8832 19.9835C40.4443 22.4902 39.0764 25.888 39.0764 29.4308Z" fill="white"/>
</svg>
