<svg width="48" height="48" viewBox="0 0 48 48" fill="none" xmlns="http://www.w3.org/2000/svg">
<path d="M24 0C12.8247 0 0 2.72727 0 24C0 45.2727 12.8247 48 24 48C35.1753 48 48 45.2727 48 24C48 2.72727 35.1753 0 24 0ZM24.24 43.6364C24.1593 43.6364 23.8385 43.6364 23.7578 43.6364C21.6371 43.6233 18.0153 43.2742 16.5469 33.9578H31.4509C29.9825 43.2742 26.3607 43.6233 24.24 43.6364ZM16.0735 29.5942C15.96 27.9338 15.8989 26.0771 15.8989 24C15.8989 21.9229 15.96 20.0662 16.0735 18.4058H31.9222C32.0356 20.0662 32.0967 21.9229 32.0967 24C32.0967 26.0771 32.0356 27.9338 31.9222 29.5942H16.0735ZM4.36145 24C4.36145 21.9338 4.488 20.0749 4.73236 18.4058H11.688C11.5745 20.2713 11.5353 22.1585 11.5353 24C11.5353 25.8742 11.5724 27.7549 11.6771 29.5942H4.73455C4.49018 27.9251 4.36145 26.0662 4.36145 24ZM23.7338 4.36364C23.8211 4.36364 24.1767 4.36364 24.264 4.36364C26.3891 4.37891 29.9869 4.76073 31.4509 14.0422H16.5469C18.0087 4.76291 21.6087 4.37891 23.7338 4.36364ZM36.3185 18.4058H43.2633C43.5076 20.0749 43.6342 21.9338 43.6342 24C43.6342 26.0662 43.5076 27.9251 43.2633 29.5942H36.3076C36.4211 27.7287 36.4604 25.8415 36.4604 24C36.4604 22.1258 36.4233 20.2451 36.3185 18.4058ZM42.2204 14.0422H35.9105C35.4698 10.8131 34.704 7.86764 33.4102 5.51564C37.5033 6.80291 40.56 9.35127 42.2204 14.0422ZM14.6967 5.48291C13.3658 7.86327 12.576 10.8393 12.12 14.0422H5.77964C7.45527 9.30982 10.5491 6.75709 14.6967 5.48291ZM5.77964 33.9578H12.0895C12.5302 37.1869 13.296 40.1324 14.5898 42.4844C10.4967 41.1971 7.44 38.6487 5.77964 33.9578ZM33.3033 42.5171C34.6342 40.1367 35.424 37.1607 35.88 33.9578H42.2204C40.5447 38.6902 37.4509 41.2429 33.3033 42.5171Z" fill="#70F815"/>
</svg>
