<svg width="48" height="38" viewBox="0 0 48 38" fill="none" xmlns="http://www.w3.org/2000/svg">
<path d="M42.7604 3.5744C40.1031 1.17326 36.6255 -0.128774 33.1937 0.0107291C30.0891 0.135437 27.2268 1.43113 25.1323 3.66106L23.9957 4.87432L22.859 3.66106C20.7646 1.43113 17.9022 0.135437 14.7977 0.0107291C11.3615 -0.133001 7.88606 1.17326 5.23094 3.5744C2.77217 5.798 -0.072757 10.3128 0.00142055 15.7154C0.0734164 21.1729 2.95761 26.3874 8.57547 31.2108C10.4452 32.8172 12.6552 34.3074 15.3278 35.7701C17.996 37.2285 20.9959 38 24 38C27.0042 38 30.0041 37.2285 32.6745 35.7701C35.3448 34.3095 37.5527 32.8172 39.4246 31.2108C45.0403 26.3874 47.9245 21.1729 47.9987 15.7154C48.0707 10.3128 45.2257 5.798 42.7691 3.5744H42.7604Z" fill="url(#paint0_linear_51_75)"/>
<defs>
<linearGradient id="paint0_linear_51_75" x1="24" y1="0" x2="24" y2="38" gradientUnits="userSpaceOnUse">
<stop stop-color="#FF0000"/>
<stop offset="0.5" stop-color="#FF0267"/>
<stop offset="1" stop-color="#FFD505"/>
</linearGradient>
</defs>
</svg>
