<svg width="12" height="11" viewBox="0 0 12 11" fill="none" xmlns="http://www.w3.org/2000/svg">
<path d="M4.35363 1.34852C4.85263 -0.272581 7.14737 -0.272582 7.64637 1.34852V1.34852C7.86883 2.07121 8.54403 2.56434 9.30019 2.56434V2.56434C10.9955 2.56434 11.7557 4.71457 10.4105 5.74628L10.2594 5.86214C9.66428 6.31852 9.41583 7.09688 9.63646 7.81364L9.71447 8.06707C10.2043 9.65845 8.36157 10.9398 7.04031 9.9265V9.9265C6.42662 9.45585 5.57338 9.45585 4.95969 9.9265V9.9265C3.63843 10.9398 1.79567 9.65845 2.28553 8.06707L2.36354 7.81364C2.58417 7.09688 2.33572 6.31852 1.74063 5.86214L1.58955 5.74628C0.244272 4.71457 1.00447 2.56434 2.69981 2.56434V2.56434C3.45597 2.56434 4.13117 2.07121 4.35363 1.34852V1.34852Z" fill="url(#paint0_linear_5_31)"/>
<defs>
<linearGradient id="paint0_linear_5_31" x1="6" y1="-4" x2="6" y2="15" gradientUnits="userSpaceOnUse">
<stop stop-color="#FFD505"/>
<stop offset="1" stop-color="#FF9604"/>
</linearGradient>
</defs>
</svg>
