<svg width="38" height="36" viewBox="0 0 38 36" fill="none" xmlns="http://www.w3.org/2000/svg">
<path d="M5.17188 18.2383C8.49219 18.6094 10.2891 20.2695 10.2891 23.1016V27.1055C10.2891 29.8789 11.2266 30.9141 13.6875 30.9141H14.5469V35.0547H13.1016C7.32031 35.0547 4.85938 32.8281 4.85938 27.6719V24.625C4.85938 21.7539 3.58984 20.6602 0.25 20.6406V15.2109C3.57031 15.1914 4.85938 14.0977 4.85938 11.2266V8.10156C4.85938 3.00391 7.30078 0.816406 13.1016 0.816406H14.5469V4.95703H13.6875C11.207 4.95703 10.2891 6.01172 10.2891 8.76562V12.75C10.2891 15.5625 8.49219 17.2422 5.17188 17.6133V18.2383ZM32.8281 18.2383V17.6133C29.5078 17.2422 27.7109 15.5625 27.7109 12.75V8.76562C27.7109 6.01172 26.793 4.95703 24.3125 4.95703H23.4531V0.816406H24.8984C30.6992 0.816406 33.1602 3.00391 33.1602 8.10156V11.2266C33.1602 14.0977 34.4297 15.1914 37.75 15.2109V20.6406C34.3906 20.6602 33.1602 21.7539 33.1602 24.6055V27.5938C33.1602 32.8086 30.6797 35.0547 24.8984 35.0547H23.4531V30.9141H24.3125C26.7539 30.9141 27.7109 29.8594 27.7109 27.125V23.1211C27.7109 20.2695 29.5273 18.5898 32.8281 18.2383Z" fill="#131313"/>
</svg>
