<svg width="72" height="72" viewBox="0 0 72 72" fill="none" xmlns="http://www.w3.org/2000/svg">
<path d="M58.9054 58.9023C50.2753 67.532 39.2911 72 29.0845 72C21.8868 72 15.0794 69.766 9.75245 65.2139C10.1098 62.6286 13.2778 46.2429 36.8948 38.8623C57.6352 32.3855 64.7008 19.4559 67.0821 12.1954C75.8653 25.2241 72.7303 45.0809 58.9054 58.9023ZM35.1052 33.1332C58.7192 25.7556 61.8872 9.36988 62.2475 6.78156C49.3655 -4.22931 27.8083 -1.62597 13.0946 13.0932C-0.730348 26.9176 -3.86528 46.7714 4.91793 59.7971C7.29916 52.5396 14.3648 39.613 35.1052 33.1332Z" fill="#70F815"/>
</svg>
