<svg width="32" height="28" viewBox="0 0 32 28" fill="none" xmlns="http://www.w3.org/2000/svg">
<path d="M11.9937 27.1215C11.4964 27.1215 10.999 26.9343 10.611 26.5574L1.78302 17.9766C-0.58898 15.5656 -0.58898 11.6943 1.75102 9.31449L10.6004 0.576432C11.3924 -0.204623 12.659 -0.186995 13.4284 0.618468C14.1977 1.42393 14.179 2.71213 13.387 3.49454L4.55902 12.2123C4.20169 12.5757 3.99369 13.0869 3.99369 13.6293C3.99369 14.1717 4.20169 14.6829 4.57902 15.068L13.375 23.6176C14.1737 24.3932 14.2017 25.68 13.439 26.4923C13.0457 26.9113 12.5204 27.1215 11.9937 27.1215ZM21.3884 26.5438L30.2124 17.8044C32.551 15.4246 32.551 11.5546 30.1817 9.14363L21.3764 0.56694C20.5777 -0.212759 19.3124 -0.184283 18.5484 0.62796C17.7844 1.43885 17.811 2.72705 18.6084 3.50403L27.3817 12.0509C28.1617 12.8441 28.1617 14.1351 27.4017 14.9093L18.5964 23.6311C17.8044 24.4149 17.7884 25.7017 18.559 26.5072C18.951 26.9167 19.471 27.1215 19.9924 27.1215C20.495 27.1215 21.0004 26.9289 21.3884 26.5438Z" fill="#ff6f00ff"/>
</svg>
