<svg id="Layer_1" viewBox="0 0 24 24" xmlns="http://www.w3.org/2000/svg" data-name="Layer 1"><path d="m12 1c-7.71 0-11 3.29-11 11s3.29 11 11 11c3.701 0 9.348-.483 9.586-.504.485-.042.87-.428.911-.914.021-.249.503-6.139.503-9.582 0-7.71-3.29-11-11-11zm3.5 7c.828 0 1.5.672 1.5 1.5s-.672 1.5-1.5 1.5-1.5-.672-1.5-1.5.672-1.5 1.5-1.5zm-7 0c.828 0 1.5.672 1.5 1.5s-.672 1.5-1.5 1.5-1.5-.672-1.5-1.5.672-1.5 1.5-1.5zm8.024 7.789c-1.06.826-2.497 1.211-4.524 1.211s-3.465-.385-4.524-1.211c-.436-.34-.513-.968-.173-1.404.339-.435.967-.514 1.403-.173.68.53 1.757.788 3.294.788s2.614-.258 3.294-.788c.436-.34 1.063-.262 1.403.173.34.436.263 1.064-.173 1.404z" fill="#FFFFFF"/></svg>