<svg width="32" height="32" viewBox="0 0 32 32" fill="none" xmlns="http://www.w3.org/2000/svg">
<path d="M12.4141 30.972C12.0488 31.6293 11.3675 32 10.6649 32C10.3356 32 10.0036 31.9187 9.6956 31.7493C3.53319 28.3254 0 22.5841 0 16.0001C0 7.17752 7.17703 0.000245679 15.9993 0.000245679C16.7646 0.000245679 17.5339 0.0549119 18.2832 0.162911C19.3765 0.31891 20.1352 1.33357 19.9778 2.42556C19.8205 3.52022 18.8112 4.28555 17.7139 4.12021C17.1526 4.03888 16.5753 3.99888 15.998 3.99888C9.38361 4.00022 3.99983 9.38284 3.99983 16.0001C3.99983 21.0894 6.78372 25.5547 11.6382 28.2507C12.6035 28.7867 12.9515 30.004 12.4155 30.9707L12.4141 30.972ZM29.5734 12.0215C28.4801 12.1775 27.7202 13.1908 27.8775 14.2841C27.9588 14.8468 27.9988 15.4241 27.9988 16.0001C27.9988 19.6761 25.0083 22.6667 21.3324 22.6667C17.8673 22.6667 14.9474 19.9654 14.6861 16.5148C14.6021 15.4148 13.6341 14.5881 12.5408 14.6721C11.4395 14.7561 10.6142 15.7175 10.6982 16.8188C11.1182 22.3414 15.79 26.6667 21.3338 26.6667C27.2149 26.6667 32 21.8814 32 16.0001C32 15.2348 31.9453 14.4668 31.8373 13.7161C31.68 12.6228 30.6707 11.8562 29.5734 12.0215ZM17.3673 12.7268V14.0001C17.3673 14.3681 17.6659 14.6668 18.0339 14.6668H19.3072C20.8391 14.6668 22.3097 14.0575 23.3924 12.9748L31.012 5.35487C32.1453 4.22155 32.3627 2.37356 31.348 1.13224C30.1814 -0.294419 28.0735 -0.373085 26.8029 0.897572L19.0592 8.64151C17.9753 9.7255 17.3673 11.1948 17.3673 12.7268Z" fill="#0E0E0E"/>
</svg>
