<svg width="64" height="64" viewBox="0 0 64 64" fill="none" xmlns="http://www.w3.org/2000/svg">
<rect width="64" height="64" rx="8" fill="#A2FF3F"/>
<path d="M50.2973 27.4757C50.4977 28.3098 50.2313 29.1473 49.667 29.7115C49.367 30.0116 48.9852 30.2344 48.5441 30.3396L36.5018 33.2349L45.2592 41.9923C46.1862 42.9193 46.1862 44.424 45.2592 45.351C44.3322 46.278 42.8275 46.278 41.9004 45.351L33.1419 36.5925L30.2467 48.637C30.1403 49.077 29.9175 49.461 29.6186 49.76C29.0532 50.3253 28.2169 50.5907 27.3828 50.3903C26.1076 50.0846 25.3216 48.8016 25.6295 47.5264L28.6087 35.1337L16.2149 38.1118C14.9386 38.4186 13.6567 37.6337 13.351 36.3585C13.0442 35.0822 13.8324 33.7991 15.1043 33.4946L27.1488 30.5994L18.3891 21.8397C17.4621 20.9127 17.4621 19.408 18.3891 18.481C19.3162 17.554 20.8209 17.554 21.7479 18.481L30.5053 27.2384L33.4006 15.1961C33.7062 13.9231 34.9904 13.1361 36.2645 13.4428C37.5385 13.7496 38.3256 15.0315 38.0177 16.3067L35.0385 28.6994L47.4312 25.7202C48.7075 25.4134 49.9895 26.1983 50.2951 27.4735L50.2973 27.4757Z" fill="#0E0E0E"/>
</svg>
