<svg width="387" height="11" viewBox="0 0 387 11" fill="none" xmlns="http://www.w3.org/2000/svg">
<path d="M1.1 5.5V9H1.39964L1.69491 8.94907L1.1 5.5ZM7.5625 4.93735L6.71965 8.33435L7.5625 4.93735ZM15.4375 5.88971L15.4156 2.38978L15.4375 5.88971ZM18.0625 5.94962L17.8811 9.44492L18.0625 5.94962ZM24.625 6.3208L24.403 9.81375L24.625 6.3208ZM33.8125 5.95516L33.3932 2.48037L33.8125 5.95516ZM36.4375 5.63836L36.0182 2.16358L36.4375 5.63836ZM39.0625 5.26358L38.4932 1.8102L39.0625 5.26358ZM44.3125 5.33481L42.6284 8.40303L44.3125 5.33481ZM46.9375 6.77559L48.6216 3.70737L46.9375 6.77559ZM54.8125 6.90843L54.8089 10.4084L54.8125 6.90843ZM62.6875 7.11795L62.5051 10.6132L62.6875 7.11795ZM70.5625 6.38455L69.5423 3.03652L70.5625 6.38455ZM78.4375 5.35547L78.2859 8.85218L78.4375 5.35547ZM81.0625 5.46905L80.9115 8.96579V8.96579L81.0625 5.46905ZM91.5625 6.63737L90.8664 3.20728L91.5625 6.63737ZM92.875 6.37102L92.1789 2.94093L92.875 6.37102ZM94.1875 6.10467L94.8836 9.53475L94.1875 6.10467ZM99.4375 6.35015L98.9863 9.82095L99.4375 6.35015ZM103.375 6.36084L103.162 2.86731L103.375 6.36084ZM109.938 6.31364L109.837 9.8122L109.938 6.31364ZM112.563 5.76875L111.143 2.56962L112.563 5.76875ZM120.438 4.19768L120.281 7.69418L120.438 4.19768ZM123.062 4.85754L121.605 8.0397L123.062 4.85754ZM133.562 4.63121L133.968 1.15474L133.562 4.63121ZM134.875 4.78415L134.47 8.26063L134.875 4.78415ZM146.688 5.93163L145.628 9.26749L146.688 5.93163ZM149.312 5.64786L147.664 2.56015L149.312 5.64786ZM151.938 4.24679L153.586 7.33451L151.938 4.24679ZM157.188 3.85872L156.911 7.34775L157.188 3.85872ZM161.125 4.02686L161.04 7.52582L161.125 4.02686ZM170.312 5.86996L169.674 2.42864L170.312 5.86996ZM175.562 4.75451L176.548 8.11285L175.562 4.75451ZM183.438 4.45034L182.698 7.87126L183.438 4.45034ZM186.062 4.42742L185.266 1.01927L186.062 4.42742ZM187.375 4.12067L188.172 7.52883L187.375 4.12067ZM188.688 3.81392L189.484 7.22208L188.688 3.81392ZM191.312 3.53508L191.238 7.03429L191.312 3.53508ZM199.188 4.51992L198.407 7.93171L199.188 4.51992ZM201.812 4.76857L201.95 8.26585L201.812 4.76857ZM204.438 4.66511L204.3 1.16783L204.438 4.66511ZM207.062 4.85711L206.424 8.29828L207.062 4.85711ZM214.938 4.52728L214.027 1.14782L214.938 4.52728ZM220.188 3.94455L219.984 0.450458L220.188 3.94455ZM222.812 4.49209L221.31 7.65313L222.812 4.49209ZM233.312 4.65876L233.69 8.13838L233.312 4.65876ZM235.938 4.37427L235.56 0.894647L235.938 4.37427ZM246.438 6.78578L246.437 3.28578L246.438 6.78578ZM249.062 6.73892L248.938 3.24115L249.062 6.73892ZM250.375 6.69209L250.25 3.19432L250.375 6.69209ZM256.938 4.41796L255.242 1.35609L256.938 4.41796ZM262.188 5.66899L260.616 8.79658L262.188 5.66899ZM267.438 4.32928L265.853 1.20843L267.438 4.32928ZM270.062 4.48325L268.208 7.45125L270.062 4.48325ZM275.312 6.78041L274.879 3.30733L275.312 6.78041ZM277.938 6.45293L278.371 9.92601L277.938 6.45293ZM280.562 6.38688L280.822 2.89653L280.562 6.38688ZM283.188 6.58224L283.447 3.09189L283.188 6.58224ZM291.062 6.04203L290.151 9.42132L291.062 6.04203ZM296.312 7.07278L296.23 3.57376L296.312 7.07278ZM301.562 6.24734L299.857 3.19091L301.562 6.24734ZM304.188 4.7827L305.893 7.83913L304.188 4.7827ZM308.125 4.7297L307.248 8.11808L308.125 4.7297ZM309.438 5.06935L308.561 8.45773L309.438 5.06935ZM314.688 5.3118L314.601 1.81287L314.688 5.3118ZM322.562 5.24194L321.63 1.86854L322.562 5.24194ZM323.875 4.87899L324.808 8.25239L323.875 4.87899ZM325.188 4.51605L324.255 1.14265L325.188 4.51605ZM327.812 4.39332L327.182 7.83614L327.812 4.39332ZM335.688 4.83202L335.438 1.34096L335.688 4.83202ZM339.625 5.68896L338.433 8.97969L339.625 5.68896ZM356.688 6.88854L356.586 10.3871L356.688 6.88854ZM360.625 5.84651L359.293 2.60976L360.625 5.84651ZM364.562 4.67944L364.331 1.18711L364.562 4.67944ZM369.812 4.29463L369.484 0.810059L369.812 4.29463ZM372.438 4.04736L372.766 7.53193L372.438 4.04736ZM377.688 4.02517L377.597 7.52401L377.688 4.02517ZM380 4.69482L381.878 1.7413L380 4.69482ZM382 5.96649L380.122 8.92001L382 5.96649ZM383 6.05116H386.5V5.73622L386.444 5.42634L383 6.05116ZM382.9 5.5V2H378.708L379.456 6.12482L382.9 5.5ZM1 5.5V9H1.1V5.5V2H1V5.5ZM1.1 5.5L1.69491 8.94907L4.26991 8.50492L3.675 5.05585L3.08009 1.60678L0.505087 2.05093L1.1 5.5ZM3.675 5.05585L4.26991 8.50492C5.01784 8.37591 5.60146 8.31592 6.04101 8.30253C6.25799 8.29591 6.42272 8.30123 6.54195 8.31098C6.60067 8.31579 6.64454 8.32136 6.67504 8.32612C6.70563 8.33089 6.71977 8.33438 6.71965 8.33435L7.5625 4.93735L8.40535 1.54035C6.80049 1.14216 4.91166 1.29086 3.08009 1.60678L3.675 5.05585ZM7.5625 4.93735L6.71965 8.33435L8.03215 8.66L8.875 5.263L9.71785 1.866L8.40535 1.54035L7.5625 4.93735ZM8.875 5.263L8.03215 8.66L9.34465 8.98566L10.1875 5.58866L11.0303 2.19166L9.71785 1.866L8.875 5.263ZM10.1875 5.58866L9.34465 8.98566C10.4939 9.27079 11.6592 9.41338 12.8344 9.40604L12.8125 5.90611L12.7906 2.40618C12.2158 2.40977 11.6311 2.34072 11.0303 2.19166L10.1875 5.58866ZM12.8125 5.90611L12.8344 9.40604L14.1469 9.39784L14.125 5.89791L14.1031 2.39798L12.7906 2.40618L12.8125 5.90611ZM14.125 5.89791L14.1469 9.39784L15.4594 9.38964L15.4375 5.88971L15.4156 2.38978L14.1031 2.39798L14.125 5.89791ZM15.4375 5.88971L15.4594 9.38964C16.2665 9.3846 17.0737 9.40302 17.8811 9.44492L18.0625 5.94962L18.2439 2.45433C17.3013 2.40541 16.3585 2.38389 15.4156 2.38978L15.4375 5.88971ZM18.0625 5.94962L17.8811 9.44492L19.1936 9.51303L19.375 6.01774L19.5564 2.52244L18.2439 2.45433L18.0625 5.94962ZM19.375 6.01774L19.1936 9.51303L20.5061 9.58115L20.6875 6.08585L20.8689 2.59056L19.5564 2.52244L19.375 6.01774ZM20.6875 6.08585L20.5061 9.58115C21.3676 9.62585 22.229 9.67558 23.0905 9.73034L23.3125 6.23738L23.5345 2.74443C22.646 2.68796 21.7574 2.63667 20.8689 2.59056L20.6875 6.08585ZM23.3125 6.23738L23.0905 9.73034L24.403 9.81375L24.625 6.3208L24.847 2.82785L23.5345 2.74443L23.3125 6.23738ZM24.625 6.3208L24.403 9.81375L25.7155 9.89717L25.9375 6.40422L26.1595 2.91126L24.847 2.82785L24.625 6.3208ZM25.9375 6.40422L25.7155 9.89717C26.7474 9.96275 27.7796 9.95877 28.8113 9.88526L28.5625 6.39411L28.3137 2.90296C27.5954 2.95415 26.8776 2.9569 26.1595 2.91126L25.9375 6.40422ZM28.5625 6.39411L28.8113 9.88526L30.1238 9.79174L29.875 6.30059L29.6262 2.80944L28.3137 2.90296L28.5625 6.39411ZM29.875 6.30059L30.1238 9.79174L31.4363 9.69822L31.1875 6.20707L30.9387 2.71593L29.6262 2.80944L29.875 6.30059ZM31.1875 6.20707L31.4363 9.69822C32.3685 9.6318 33.3004 9.54236 34.2318 9.42994L33.8125 5.95516L33.3932 2.48037C32.5746 2.57915 31.7565 2.65766 30.9387 2.71593L31.1875 6.20707ZM33.8125 5.95516L34.2318 9.42994L35.5443 9.27155L35.125 5.79676L34.7057 2.32197L33.3932 2.48037L33.8125 5.95516ZM35.125 5.79676L35.5443 9.27155L36.8568 9.11315L36.4375 5.63836L36.0182 2.16358L34.7057 2.32197L35.125 5.79676ZM36.4375 5.63836L36.8568 9.11315C37.7823 9.00146 38.7073 8.86938 39.6318 8.71696L39.0625 5.26358L38.4932 1.8102C37.6677 1.94629 36.8427 2.06407 36.0182 2.16358L36.4375 5.63836ZM39.0625 5.26358L39.6318 8.71696L40.9443 8.50057L40.375 5.04719L39.8057 1.59381L38.4932 1.8102L39.0625 5.26358ZM40.375 5.04719L40.9443 8.50057L42.2568 8.28419L41.6875 4.83081L41.1182 1.37742L39.8057 1.59381L40.375 5.04719ZM41.6875 4.83081L42.2568 8.28419C42.2623 8.28329 42.3494 8.24986 42.6284 8.40303L44.3125 5.33481L45.9966 2.26659C44.5256 1.45924 42.8627 1.08981 41.1182 1.37742L41.6875 4.83081ZM44.3125 5.33481L42.6284 8.40303L43.9409 9.12342L45.625 6.0552L47.3091 2.98698L45.9966 2.26659L44.3125 5.33481ZM45.625 6.0552L43.9409 9.12342L45.2534 9.84381L46.9375 6.77559L48.6216 3.70737L47.3091 2.98698L45.625 6.0552ZM46.9375 6.77559L45.2534 9.84381C46.6733 10.6231 48.267 11.016 49.9527 10.8269L49.5625 7.34876L49.1723 3.87057C49.108 3.87779 48.9517 3.88861 48.6216 3.70737L46.9375 6.77559ZM49.5625 7.34876L49.9527 10.8269L51.2652 10.6797L50.875 7.20153L50.4848 3.72334L49.1723 3.87057L49.5625 7.34876ZM50.875 7.20153L51.2652 10.6797L52.5777 10.5325L52.1875 7.0543L51.7973 3.57611L50.4848 3.72334L50.875 7.20153ZM52.1875 7.0543L52.5777 10.5325C53.3227 10.4489 54.0663 10.4077 54.8089 10.4084L54.8125 6.90843L54.8161 3.40843C53.8087 3.40739 52.8023 3.46339 51.7973 3.57611L52.1875 7.0543ZM54.8125 6.90843L54.8089 10.4084L56.1214 10.4098L56.125 6.90978L56.1286 3.40979L54.8161 3.40843L54.8125 6.90843ZM56.125 6.90978L56.1214 10.4098L57.4339 10.4111L57.4375 6.91114L57.4411 3.41114L56.1286 3.40979L56.125 6.90978ZM57.4375 6.91114L57.4339 10.4111C58.2492 10.412 59.0646 10.4337 59.8801 10.4762L60.0625 6.98098L60.2449 3.48574C59.3104 3.43698 58.3758 3.41211 57.4411 3.41114L57.4375 6.91114ZM60.0625 6.98098L59.8801 10.4762L61.1926 10.5447L61.375 7.04947L61.5574 3.55422L60.2449 3.48574L60.0625 6.98098ZM61.375 7.04947L61.1926 10.5447L62.5051 10.6132L62.6875 7.11795L62.8699 3.62271L61.5574 3.55422L61.375 7.04947ZM62.6875 7.11795L62.5051 10.6132C63.5302 10.6667 64.5553 10.6542 65.5797 10.5757L65.3125 7.08595L65.0453 3.59616C64.3197 3.65172 63.5948 3.66053 62.8699 3.62271L62.6875 7.11795ZM65.3125 7.08595L65.5797 10.5757L66.8922 10.4752L66.625 6.98546L66.3578 3.49567L65.0453 3.59616L65.3125 7.08595ZM66.625 6.98546L66.8922 10.4752L68.2047 10.3748L67.9375 6.88497L67.6703 3.39518L66.3578 3.49567L66.625 6.98546ZM67.9375 6.88497L68.2047 10.3748C69.3457 10.2874 70.473 10.0707 71.5827 9.73258L70.5625 6.38455L69.5423 3.03652C68.902 3.23163 68.2793 3.34855 67.6703 3.39518L67.9375 6.88497ZM70.5625 6.38455L71.5827 9.73258L72.8952 9.33265L71.875 5.98463L70.8548 2.6366L69.5423 3.03652L70.5625 6.38455ZM71.875 5.98463L72.8952 9.33265L74.2077 8.93273L73.1875 5.5847L72.1673 2.23668L70.8548 2.6366L71.875 5.98463ZM73.1875 5.5847L74.2077 8.93273C74.7204 8.77651 75.1995 8.71839 75.6609 8.73839L75.8125 5.24168L75.9641 1.74496C74.6755 1.6891 73.4047 1.85967 72.1673 2.23668L73.1875 5.5847ZM75.8125 5.24168L75.6609 8.73839L76.9734 8.79529L77.125 5.29857L77.2766 1.80186L75.9641 1.74496L75.8125 5.24168ZM77.125 5.29857L76.9734 8.79529L78.2859 8.85218L78.4375 5.35547L78.5891 1.85875L77.2766 1.80186L77.125 5.29857ZM78.4375 5.35547L78.2859 8.85218C79.1611 8.89012 80.0363 8.92799 80.9115 8.96579L81.0625 5.46905L81.2135 1.97231C80.3387 1.93452 79.4639 1.89667 78.5891 1.85875L78.4375 5.35547ZM81.0625 5.46905L80.9115 8.96579L82.224 9.02247L82.375 5.52573L82.526 2.02899L81.2135 1.97231L81.0625 5.46905ZM82.375 5.52573L82.224 9.02247L83.5365 9.07916L83.6875 5.58242L83.8385 2.08568L82.526 2.02899L82.375 5.52573ZM83.6875 5.58242L83.5365 9.07916C84.18 9.10695 84.8311 9.19853 85.4929 9.35793L86.3125 5.95526L87.1321 2.55258C86.0439 2.29044 84.945 2.13347 83.8385 2.08568L83.6875 5.58242ZM86.3125 5.95526L85.4929 9.35793L86.8054 9.67408L87.625 6.27141L88.4446 2.86873L87.1321 2.55258L86.3125 5.95526ZM87.625 6.27141L86.8054 9.67408L88.1179 9.99024L88.9375 6.58756L89.7571 3.18489L88.4446 2.86873L87.625 6.27141ZM88.9375 6.58756L88.1179 9.99024C89.4859 10.3198 90.8782 10.3476 92.2586 10.0675L91.5625 6.63737L90.8664 3.20728C90.4968 3.2823 90.1391 3.2769 89.7571 3.18489L88.9375 6.58756ZM91.5625 6.63737L92.2586 10.0675L93.5711 9.8011L92.875 6.37102L92.1789 2.94093L90.8664 3.20728L91.5625 6.63737ZM92.875 6.37102L93.5711 9.8011L94.8836 9.53475L94.1875 6.10467L93.4914 2.67458L92.1789 2.94093L92.875 6.37102ZM94.1875 6.10467L94.8836 9.53475C95.3856 9.43288 95.873 9.41625 96.3613 9.47973L96.8125 6.00893L97.2637 2.53813C96.002 2.37413 94.7394 2.42132 93.4914 2.67458L94.1875 6.10467ZM96.8125 6.00893L96.3613 9.47973L97.6738 9.65034L98.125 6.17954L98.5762 2.70874L97.2637 2.53813L96.8125 6.00893ZM98.125 6.17954L97.6738 9.65034L98.9863 9.82095L99.4375 6.35015L99.8887 2.87935L98.5762 2.70874L98.125 6.17954ZM99.4375 6.35015L98.9863 9.82095C100.08 9.96311 101.177 10.0012 102.275 9.93432L102.062 6.4408L101.85 2.94727C101.198 2.987 100.545 2.96466 99.8887 2.87935L99.4375 6.35015ZM102.062 6.4408L102.275 9.93432L103.588 9.85436L103.375 6.36084L103.162 2.86731L101.85 2.94727L102.062 6.4408ZM103.375 6.36084L103.588 9.85436L104.9 9.7744L104.688 6.28088L104.475 2.78735L103.162 2.86731L103.375 6.36084ZM104.688 6.28088L104.9 9.7744C105.671 9.72743 106.442 9.715 107.212 9.73706L107.312 6.23849L107.413 2.73992C106.433 2.71188 105.454 2.72771 104.475 2.78735L104.688 6.28088ZM107.312 6.23849L107.212 9.73706L108.525 9.77463L108.625 6.27606L108.725 2.7775L107.413 2.73992L107.312 6.23849ZM108.625 6.27606L108.525 9.77463L109.837 9.8122L109.938 6.31364L110.038 2.81507L108.725 2.7775L108.625 6.27606ZM109.938 6.31364L109.837 9.8122C111.282 9.85357 112.675 9.54814 113.982 8.96788L112.563 5.76875L111.143 2.56962C110.7 2.76598 110.343 2.8238 110.038 2.81507L109.938 6.31364ZM112.563 5.76875L113.982 8.96788L115.295 8.38542L113.875 5.18629L112.455 1.98716L111.143 2.56962L112.563 5.76875ZM113.875 5.18629L115.295 8.38542L116.607 7.80296L115.188 4.60383L113.768 1.4047L112.455 1.98716L113.875 5.18629ZM115.188 4.60383L116.607 7.80296C117.034 7.61368 117.371 7.56389 117.656 7.57664L117.812 4.08014L117.969 0.583643C116.504 0.518028 115.091 0.817363 113.768 1.4047L115.188 4.60383ZM117.812 4.08014L117.656 7.57664L118.968 7.63541L119.125 4.13891L119.282 0.642415L117.969 0.583643L117.812 4.08014ZM119.125 4.13891L118.968 7.63541L120.281 7.69418L120.438 4.19768L120.594 0.701186L119.282 0.642415L119.125 4.13891ZM120.438 4.19768L120.281 7.69418C120.664 7.71132 121.099 7.80787 121.605 8.0397L123.062 4.85754L124.52 1.67538C123.276 1.10576 121.961 0.762411 120.594 0.701186L120.438 4.19768ZM123.062 4.85754L121.605 8.0397L122.918 8.64079L124.375 5.45863L125.832 2.27647L124.52 1.67538L123.062 4.85754ZM124.375 5.45863L122.918 8.64079L124.23 9.24188L125.688 6.05972L127.145 2.87756L125.832 2.27647L124.375 5.45863ZM125.688 6.05972L124.23 9.24188C125.975 10.0412 127.865 10.0914 129.656 9.34703L128.312 6.11517L126.969 2.88332C126.952 2.89051 126.956 2.88708 126.979 2.88251C127.003 2.8778 127.036 2.8741 127.074 2.87491C127.112 2.87571 127.142 2.88071 127.159 2.88489C127.176 2.88887 127.171 2.88976 127.145 2.87756L125.688 6.05972ZM128.312 6.11517L129.656 9.34703L130.969 8.8014L129.625 5.56954L128.281 2.33769L126.969 2.88332L128.312 6.11517ZM129.625 5.56954L130.969 8.8014L132.281 8.25576L130.938 5.02391L129.594 1.79205L128.281 2.33769L129.625 5.56954ZM130.938 5.02391L132.281 8.25576C132.647 8.10373 132.921 8.08018 133.157 8.10769L133.562 4.63121L133.968 1.15474C132.454 0.97833 130.978 1.21657 129.594 1.79205L130.938 5.02391ZM133.562 4.63121L133.157 8.10769L134.47 8.26063L134.875 4.78415L135.28 1.30768L133.968 1.15474L133.562 4.63121ZM134.875 4.78415L134.47 8.26063L135.782 8.41357L136.188 4.93709L136.593 1.46061L135.28 1.30768L134.875 4.78415ZM136.188 4.93709L135.782 8.41357C136.881 8.54161 137.983 8.56303 139.084 8.47729L138.812 4.98785L138.541 1.49841C137.892 1.54891 137.244 1.5365 136.593 1.46061L136.188 4.93709ZM138.812 4.98785L139.084 8.47729L140.397 8.37511L140.125 4.88567L139.853 1.39623L138.541 1.49841L138.812 4.98785ZM140.125 4.88567L140.397 8.37511L141.709 8.27293L141.438 4.78349L141.166 1.29405L139.853 1.39623L140.125 4.88567ZM141.438 4.78349L141.709 8.27293C142.114 8.2414 142.538 8.28613 143.003 8.43394L144.062 5.09808L145.122 1.76223C143.837 1.35434 142.511 1.18934 141.166 1.29405L141.438 4.78349ZM144.062 5.09808L143.003 8.43394L144.316 8.85071L145.375 5.51486L146.434 2.179L145.122 1.76223L144.062 5.09808ZM145.375 5.51486L144.316 8.85071L145.628 9.26749L146.688 5.93163L147.747 2.59577L146.434 2.179L145.375 5.51486ZM146.688 5.93163L145.628 9.26749C147.479 9.85527 149.328 9.60717 150.961 8.73558L149.312 5.64786L147.664 2.56015C147.616 2.58583 147.591 2.59445 147.587 2.59571C147.584 2.59671 147.597 2.59225 147.624 2.58935C147.651 2.58639 147.681 2.58633 147.708 2.58922C147.735 2.59206 147.749 2.59656 147.747 2.59577L146.688 5.93163ZM149.312 5.64786L150.961 8.73558L152.273 8.03504L150.625 4.94733L148.977 1.85962L147.664 2.56015L149.312 5.64786ZM150.625 4.94733L152.273 8.03504L153.586 7.33451L151.938 4.24679L150.289 1.15908L148.977 1.85962L150.625 4.94733ZM151.938 4.24679L153.586 7.33451C153.949 7.14031 154.161 7.12958 154.286 7.13944L154.562 3.65041L154.839 0.16138C153.214 0.0323715 151.676 0.419227 150.289 1.15908L151.938 4.24679ZM154.562 3.65041L154.286 7.13944L155.598 7.2436L155.875 3.75456L156.152 0.265532L154.839 0.16138L154.562 3.65041ZM155.875 3.75456L155.598 7.2436L156.911 7.34775L157.188 3.85872L157.464 0.369685L156.152 0.265532L155.875 3.75456ZM157.188 3.85872L156.911 7.34775C157.849 7.42223 158.788 7.47093 159.727 7.49383L159.812 3.99487L159.898 0.495905C159.087 0.476138 158.276 0.434076 157.464 0.369685L157.188 3.85872ZM159.812 3.99487L159.727 7.49383L161.04 7.52582L161.125 4.02686L161.21 0.5279L159.898 0.495905L159.812 3.99487ZM161.125 4.02686L161.04 7.52582L162.352 7.55782L162.438 4.05886L162.523 0.559895L161.21 0.5279L161.125 4.02686ZM162.438 4.05886L162.352 7.55782C162.798 7.56868 163.277 7.65943 163.804 7.8625L165.062 4.59648L166.321 1.33045C165.098 0.859353 163.827 0.591688 162.523 0.559895L162.438 4.05886ZM165.062 4.59648L163.804 7.8625L165.117 8.36813L166.375 5.10211L167.633 1.83608L166.321 1.33045L165.062 4.59648ZM166.375 5.10211L165.117 8.36813L166.429 8.87376L167.688 5.60774L168.946 2.34171L167.633 1.83608L166.375 5.10211ZM167.688 5.60774L166.429 8.87376C167.874 9.4304 169.405 9.59798 170.951 9.31128L170.312 5.86996L169.674 2.42864C169.47 2.46648 169.251 2.45925 168.946 2.34171L167.688 5.60774ZM170.312 5.86996L170.951 9.31128L172.263 9.06787L171.625 5.62655L170.987 2.18523L169.674 2.42864L170.312 5.86996ZM171.625 5.62655L172.263 9.06787L173.576 8.82446L172.938 5.38314L172.299 1.94182L170.987 2.18523L171.625 5.62655ZM172.938 5.38314L173.576 8.82446C174.571 8.63994 175.562 8.4024 176.548 8.11285L175.562 4.75451L174.577 1.39618C173.813 1.62026 173.054 1.80181 172.299 1.94182L172.938 5.38314ZM175.562 4.75451L176.548 8.11285L177.861 7.72763L176.875 4.36929L175.889 1.01095L174.577 1.39618L175.562 4.75451ZM176.875 4.36929L177.861 7.72763L179.173 7.34241L178.188 3.98407L177.202 0.625731L175.889 1.01095L176.875 4.36929ZM178.188 3.98407L179.173 7.34241C179.498 7.24702 179.78 7.24032 180.073 7.3036L180.812 3.88268L181.552 0.461754C180.095 0.146596 178.627 0.207492 177.202 0.625731L178.188 3.98407ZM180.812 3.88268L180.073 7.3036L181.385 7.58743L182.125 4.16651L182.865 0.745585L181.552 0.461754L180.812 3.88268ZM182.125 4.16651L181.385 7.58743L182.698 7.87126L183.438 4.45034L184.177 1.02942L182.865 0.745585L182.125 4.16651ZM183.438 4.45034L182.698 7.87126C184.081 8.17049 185.481 8.15761 186.859 7.83558L186.062 4.42742L185.266 1.01927C184.894 1.10623 184.544 1.10863 184.177 1.02942L183.438 4.45034ZM186.062 4.42742L186.859 7.83558L188.172 7.52883L187.375 4.12067L186.578 0.712516L185.266 1.01927L186.062 4.42742ZM187.375 4.12067L188.172 7.52883L189.484 7.22208L188.688 3.81392L187.891 0.405766L186.578 0.712516L187.375 4.12067ZM188.688 3.81392L189.484 7.22208C190.081 7.08248 190.664 7.02208 191.238 7.03429L191.312 3.53508L191.387 0.0358696C190.211 0.0108728 189.044 0.136367 187.891 0.405766L188.688 3.81392ZM191.312 3.53508L191.238 7.03429L192.551 7.06219L192.625 3.56298L192.699 0.0637732L191.387 0.0358696L191.312 3.53508ZM192.625 3.56298L192.551 7.06219L193.863 7.0901L193.938 3.59089L194.012 0.0916767L192.699 0.0637732L192.625 3.56298ZM193.938 3.59089L193.863 7.0901C194.494 7.10351 195.133 7.18242 195.782 7.33096L196.562 3.91917L197.343 0.507374C196.242 0.255415 195.131 0.115464 194.012 0.0916767L193.938 3.59089ZM196.562 3.91917L195.782 7.33096L197.094 7.63133L197.875 4.21954L198.656 0.80775L197.343 0.507374L196.562 3.91917ZM197.875 4.21954L197.094 7.63133L198.407 7.93171L199.188 4.51992L199.968 1.10813L198.656 0.80775L197.875 4.21954ZM199.188 4.51992L198.407 7.93171C199.575 8.19913 200.759 8.3128 201.95 8.26585L201.812 4.76857L201.675 1.27128C201.116 1.2933 200.55 1.24121 199.968 1.10813L199.188 4.51992ZM201.812 4.76857L201.95 8.26585L203.263 8.21413L203.125 4.71684L202.987 1.21956L201.675 1.27128L201.812 4.76857ZM203.125 4.71684L203.263 8.21413L204.575 8.1624L204.438 4.66511L204.3 1.16783L202.987 1.21956L203.125 4.71684ZM204.438 4.66511L204.575 8.1624C205.186 8.13834 205.8 8.18257 206.424 8.29828L207.062 4.85711L207.701 1.41593C206.575 1.20668 205.439 1.12292 204.3 1.16783L204.438 4.66511ZM207.062 4.85711L206.424 8.29828L207.736 8.542L208.375 5.10083L209.014 1.65965L207.701 1.41593L207.062 4.85711ZM208.375 5.10083L207.736 8.542L209.049 8.78572L209.688 5.34455L210.326 1.90337L209.014 1.65965L208.375 5.10083ZM209.688 5.34455L209.049 8.78572C210.448 9.04556 211.852 8.98346 213.223 8.61407L212.312 5.2346L211.402 1.85514C211.023 1.9573 210.677 1.9685 210.326 1.90337L209.688 5.34455ZM212.312 5.2346L213.223 8.61407L214.536 8.26041L213.625 4.88094L212.714 1.50148L211.402 1.85514L212.312 5.2346ZM213.625 4.88094L214.536 8.26041L215.848 7.90674L214.938 4.52728L214.027 1.14782L212.714 1.50148L213.625 4.88094ZM214.938 4.52728L215.848 7.90674C216.5 7.73117 217.138 7.62789 217.766 7.59135L217.562 4.09726L217.359 0.603169C216.237 0.668446 215.125 0.851845 214.027 1.14782L214.938 4.52728ZM217.562 4.09726L217.766 7.59135L219.078 7.515L218.875 4.02091L218.672 0.526814L217.359 0.603169L217.562 4.09726ZM218.875 4.02091L219.078 7.515L220.391 7.43864L220.188 3.94455L219.984 0.450458L218.672 0.526814L218.875 4.02091ZM220.188 3.94455L220.391 7.43864C220.618 7.42542 220.909 7.46269 221.31 7.65313L222.812 4.49209L224.315 1.33105C222.966 0.689625 221.507 0.361872 219.984 0.450458L220.188 3.94455ZM222.812 4.49209L221.31 7.65313L222.622 8.27703L224.125 5.11599L225.628 1.95495L224.315 1.33105L222.812 4.49209ZM224.125 5.11599L222.622 8.27703L223.935 8.90093L225.438 5.73988L226.94 2.57884L225.628 1.95495L224.125 5.11599ZM225.438 5.73988L223.935 8.90093C225.539 9.66336 227.303 9.85086 229.061 9.32762L228.063 5.97308L227.064 2.61855C227.045 2.62427 227.038 2.6244 227.043 2.62395C227.047 2.62346 227.054 2.62336 227.06 2.62386C227.065 2.62434 227.061 2.62459 227.044 2.61988C227.027 2.61503 226.992 2.60373 226.94 2.57884L225.438 5.73988ZM228.063 5.97308L229.061 9.32762L230.374 8.93692L229.375 5.58239L228.376 2.22786L227.064 2.61855L228.063 5.97308ZM229.375 5.58239L230.374 8.93692L231.686 8.54623L230.688 5.19169L229.689 1.83716L228.376 2.22786L229.375 5.58239ZM230.688 5.19169L231.686 8.54623C232.366 8.34393 233.033 8.20956 233.69 8.13838L233.312 4.65876L232.935 1.17913C231.842 1.2976 230.759 1.51853 229.689 1.83716L230.688 5.19169ZM233.312 4.65876L233.69 8.13838L235.002 7.99614L234.625 4.51651L234.248 1.03689L232.935 1.17913L233.312 4.65876ZM234.625 4.51651L235.002 7.99614L236.315 7.8539L235.938 4.37427L235.56 0.894647L234.248 1.03689L234.625 4.51651ZM235.938 4.37427L236.315 7.8539C236.467 7.83738 236.684 7.84883 237.031 8.01786L238.562 4.87049L240.094 1.72311C238.691 1.04087 237.158 0.721509 235.56 0.894647L235.938 4.37427ZM238.562 4.87049L237.031 8.01786L238.344 8.65632L239.875 5.50894L241.406 2.36157L240.094 1.72311L238.562 4.87049ZM239.875 5.50894L238.344 8.65632L239.656 9.29478L241.187 6.1474L242.719 3.00003L241.406 2.36157L239.875 5.50894ZM241.187 6.1474L239.656 9.29478C240.955 9.9262 242.35 10.2859 243.813 10.2858L243.812 6.78583L243.812 3.28583C243.525 3.28584 243.17 3.21988 242.719 3.00003L241.187 6.1474ZM243.812 6.78583L243.813 10.2858L245.125 10.2858L245.125 6.78581L245.125 3.28581L243.812 3.28583L243.812 6.78583ZM245.125 6.78581L245.125 10.2858L246.438 10.2858L246.438 6.78578L246.437 3.28578L245.125 3.28581L245.125 6.78581ZM246.438 6.78578L246.438 10.2858C247.354 10.2858 248.271 10.2694 249.187 10.2367L249.062 6.73892L248.938 3.24115C248.104 3.27089 247.271 3.28577 246.437 3.28578L246.438 6.78578ZM249.062 6.73892L249.187 10.2367L250.5 10.1899L250.375 6.69209L250.25 3.19432L248.938 3.24115L249.062 6.73892ZM250.375 6.69209L250.5 10.1899L251.812 10.143L251.688 6.64526L251.563 3.14749L250.25 3.19432L250.375 6.69209ZM251.688 6.64526L251.812 10.143C253.312 10.0895 254.72 9.64671 256.008 8.93347L254.312 5.8716L252.617 2.80974C252.155 3.0656 251.813 3.13854 251.563 3.14749L251.688 6.64526ZM254.312 5.8716L256.008 8.93347L257.321 8.20665L255.625 5.14478L253.929 2.08291L252.617 2.80974L254.312 5.8716ZM255.625 5.14478L257.321 8.20665L258.633 7.47982L256.938 4.41796L255.242 1.35609L253.929 2.08291L255.625 5.14478ZM256.938 4.41796L258.633 7.47982C258.649 7.47096 258.541 7.53134 258.34 7.5365C258.136 7.54175 258.007 7.48562 257.991 7.47801L259.562 4.35042L261.134 1.22282C259.199 0.251246 257.102 0.325965 255.242 1.35609L256.938 4.41796ZM259.562 4.35042L257.991 7.47801L259.304 8.1373L260.875 5.0097L262.446 1.8821L261.134 1.22282L259.562 4.35042ZM260.875 5.0097L259.304 8.1373L260.616 8.79658L262.188 5.66899L263.759 2.54139L262.446 1.8821L260.875 5.0097ZM262.188 5.66899L260.616 8.79658C262.487 9.73629 264.533 9.72886 266.397 8.78279L264.812 5.66194L263.228 2.54109C263.219 2.54581 263.317 2.49734 263.491 2.49688C263.664 2.49641 263.765 2.54451 263.759 2.54139L262.188 5.66899ZM264.812 5.66194L266.397 8.78279L267.709 8.11646L266.125 4.99561L264.541 1.87476L263.228 2.54109L264.812 5.66194ZM266.125 4.99561L267.709 8.11646L269.022 7.45013L267.438 4.32928L265.853 1.20843L264.541 1.87476L266.125 4.99561ZM267.438 4.32928L269.022 7.45013C268.974 7.47436 268.798 7.54344 268.545 7.5286C268.301 7.5143 268.179 7.4334 268.208 7.45125L270.062 4.48325L271.917 1.51524C270.067 0.358897 267.889 0.174838 265.853 1.20843L267.438 4.32928ZM270.062 4.48325L268.208 7.45125L269.52 8.27155L271.375 5.30355L273.23 2.33554L271.917 1.51524L270.062 4.48325ZM271.375 5.30355L269.52 8.27155L270.833 9.09185L272.688 6.12385L274.542 3.15584L273.23 2.33554L271.375 5.30355ZM272.688 6.12385L270.833 9.09185C272.268 9.98905 273.941 10.4786 275.746 10.2535L275.312 6.78041L274.879 3.30733C274.877 3.30763 274.876 3.30765 274.876 3.30765C274.876 3.30765 274.876 3.30766 274.875 3.30763C274.875 3.30763 274.867 3.30724 274.849 3.30273C274.814 3.294 274.713 3.2625 274.542 3.15584L272.688 6.12385ZM275.312 6.78041L275.746 10.2535L277.058 10.0898L276.625 6.61667L276.192 3.14359L274.879 3.30733L275.312 6.78041ZM276.625 6.61667L277.058 10.0898L278.371 9.92601L277.938 6.45293L277.504 2.97986L276.192 3.14359L276.625 6.61667ZM277.938 6.45293L278.371 9.92601C279.017 9.84539 279.66 9.82938 280.303 9.87722L280.562 6.38688L280.822 2.89653C279.715 2.81413 278.608 2.84216 277.504 2.97986L277.938 6.45293ZM280.562 6.38688L280.303 9.87722L281.615 9.97491L281.875 6.48456L282.135 2.99421L280.822 2.89653L280.562 6.38688ZM281.875 6.48456L281.615 9.97491L282.928 10.0726L283.188 6.58224L283.447 3.09189L282.135 2.99421L281.875 6.48456ZM283.188 6.58224L282.928 10.0726C284.111 10.1607 285.292 10.0922 286.462 9.87113L285.812 6.43197L285.163 2.9928C284.583 3.10235 284.014 3.13404 283.447 3.09189L283.188 6.58224ZM285.812 6.43197L286.462 9.87113L287.775 9.62318L287.125 6.18401L286.475 2.74484L285.163 2.9928L285.812 6.43197ZM287.125 6.18401L287.775 9.62318L289.087 9.37522L288.438 5.93605L287.788 2.49689L286.475 2.74484L287.125 6.18401ZM288.438 5.93605L289.087 9.37522C289.435 9.30959 289.776 9.32015 290.151 9.42132L291.062 6.04203L291.974 2.66274C290.599 2.292 289.19 2.23191 287.788 2.49689L288.438 5.93605ZM291.062 6.04203L290.151 9.42132L291.464 9.77525L292.375 6.39596L293.286 3.01667L291.974 2.66274L291.062 6.04203ZM292.375 6.39596L291.464 9.77525L292.776 10.1292L293.688 6.74989L294.599 3.3706L293.286 3.01667L292.375 6.39596ZM293.688 6.74989L292.776 10.1292C293.964 10.4494 295.173 10.6007 296.395 10.5718L296.312 7.07278L296.23 3.57376C295.702 3.58625 295.161 3.52233 294.599 3.3706L293.688 6.74989ZM296.312 7.07278L296.395 10.5718L297.708 10.5408L297.625 7.04174L297.542 3.54272L296.23 3.57376L296.312 7.07278ZM297.625 7.04174L297.708 10.5408L299.02 10.5097L298.938 7.0107L298.855 3.51168L297.542 3.54272L297.625 7.04174ZM298.938 7.0107L299.02 10.5097C300.542 10.4737 301.969 10.0287 303.268 9.30377L301.562 6.24734L299.857 3.19091C299.406 3.44236 299.083 3.50627 298.855 3.51168L298.938 7.0107ZM301.562 6.24734L303.268 9.30377L304.58 8.57145L302.875 5.51502L301.17 2.4586L299.857 3.19091L301.562 6.24734ZM302.875 5.51502L304.58 8.57145L305.893 7.83913L304.188 4.7827L302.482 1.72628L301.17 2.4586L302.875 5.51502ZM304.188 4.7827L305.893 7.83913C305.953 7.80562 305.992 7.78981 306.011 7.78315C306.029 7.77671 306.031 7.77793 306.018 7.77987C306.004 7.78188 305.986 7.78311 305.965 7.78201C305.945 7.78091 305.934 7.77811 305.936 7.77842L306.812 4.39004L307.689 1.00166C305.845 0.524402 304.05 0.851331 302.482 1.72628L304.188 4.7827ZM306.812 4.39004L305.936 7.77842L307.248 8.11808L308.125 4.7297L309.002 1.34132L307.689 1.00166L306.812 4.39004ZM308.125 4.7297L307.248 8.11808L308.561 8.45773L309.438 5.06935L310.314 1.68097L309.002 1.34132L308.125 4.7297ZM309.438 5.06935L308.561 8.45773C309.74 8.76286 310.939 8.90541 312.149 8.87554L312.062 5.3766L311.976 1.87767C311.436 1.891 310.885 1.82872 310.314 1.68097L309.438 5.06935ZM312.062 5.3766L312.149 8.87554L313.461 8.84314L313.375 5.3442L313.289 1.84527L311.976 1.87767L312.062 5.3766ZM313.375 5.3442L313.461 8.84314L314.774 8.81074L314.688 5.3118L314.601 1.81287L313.289 1.84527L313.375 5.3442ZM314.688 5.3118L314.774 8.81074C315.548 8.79164 316.322 8.80606 317.096 8.85407L317.312 5.36077L317.529 1.86748C316.553 1.80699 315.577 1.78877 314.601 1.81287L314.688 5.3118ZM317.312 5.36077L317.096 8.85407L318.408 8.93543L318.625 5.44214L318.842 1.94885L317.529 1.86748L317.312 5.36077ZM318.625 5.44214L318.408 8.93543L319.721 9.0168L319.938 5.52351L320.154 2.03021L318.842 1.94885L318.625 5.44214ZM319.938 5.52351L319.721 9.0168C320.997 9.0959 322.26 8.95695 323.495 8.61533L322.562 5.24194L321.63 1.86854C321.115 2.01084 320.628 2.05961 320.154 2.03021L319.938 5.52351ZM322.562 5.24194L323.495 8.61533L324.808 8.25239L323.875 4.87899L322.942 1.5056L321.63 1.86854L322.562 5.24194ZM323.875 4.87899L324.808 8.25239L326.12 7.88945L325.188 4.51605L324.255 1.14265L322.942 1.5056L323.875 4.87899ZM325.188 4.51605L326.12 7.88945C326.497 7.78527 326.838 7.77309 327.182 7.83614L327.812 4.39332L328.443 0.950506C327.037 0.693279 325.628 0.762919 324.255 1.14265L325.188 4.51605ZM327.812 4.39332L327.182 7.83614L328.495 8.07635L329.125 4.63353L329.755 1.19072L328.443 0.950506L327.812 4.39332ZM329.125 4.63353L328.495 8.07635L329.807 8.31656L330.438 4.87374L331.068 1.43093L329.755 1.19072L329.125 4.63353ZM330.438 4.87374L329.807 8.31656C330.968 8.52905 332.139 8.59505 333.312 8.51104L333.062 5.01997L332.813 1.52891C332.236 1.5702 331.657 1.53871 331.068 1.43093L330.438 4.87374ZM333.062 5.01997L333.312 8.51104L334.625 8.41706L334.375 4.926L334.125 1.43493L332.813 1.52891L333.062 5.01997ZM334.375 4.926L334.625 8.41706L335.937 8.32308L335.688 4.83202L335.438 1.34096L334.125 1.43493L334.375 4.926ZM335.688 4.83202L335.937 8.32308C336.294 8.29758 336.678 8.34402 337.12 8.50423L338.312 5.2135L339.505 1.92276C338.197 1.44903 336.831 1.24115 335.438 1.34096L335.688 4.83202ZM338.312 5.2135L337.12 8.50423L338.433 8.97969L339.625 5.68896L340.817 2.39822L339.505 1.92276L338.312 5.2135ZM339.625 5.68896L338.433 8.97969L339.745 9.45515L340.938 6.16442L342.13 2.87368L340.817 2.39822L339.625 5.68896ZM340.938 6.16442L339.745 9.45515C341.278 10.0102 342.888 10.0932 344.477 9.66328L343.562 6.28476L342.648 2.90624C342.487 2.94982 342.347 2.95261 342.13 2.87368L340.938 6.16442ZM343.562 6.28476L344.477 9.66328L345.789 9.30817L344.875 5.92965L343.961 2.55112L342.648 2.90624L343.562 6.28476ZM344.875 5.92965L345.789 9.30817L347.102 8.95305L346.188 5.57453L345.273 2.19601L343.961 2.55112L344.875 5.92965ZM346.188 5.57453L347.102 8.95305C347.346 8.88686 347.561 8.88772 347.818 8.96407L348.812 5.60821L349.807 2.25235C348.314 1.81031 346.779 1.78872 345.273 2.19601L346.188 5.57453ZM348.812 5.60821L347.818 8.96407L349.131 9.35286L350.125 5.997L351.119 2.64114L349.807 2.25235L348.812 5.60821ZM350.125 5.997L349.131 9.35286L350.443 9.74165L351.438 6.38579L352.432 3.02993L351.119 2.64114L350.125 5.997ZM351.438 6.38579L350.443 9.74165C351.596 10.0831 352.771 10.2767 353.961 10.3111L354.062 6.81257L354.164 3.31403C353.604 3.29783 353.029 3.20683 352.432 3.02993L351.438 6.38579ZM354.062 6.81257L353.961 10.3111L355.274 10.3491L355.375 6.85056L355.476 3.35202L354.164 3.31403L354.062 6.81257ZM355.375 6.85056L355.274 10.3491L356.586 10.3871L356.688 6.88854L356.789 3.39001L355.476 3.35202L355.375 6.85056ZM356.688 6.88854L356.586 10.3871C357.991 10.4277 359.352 10.1548 360.644 9.62327L359.312 6.38652L357.981 3.14977C357.523 3.33829 357.134 3.40001 356.789 3.39001L356.688 6.88854ZM359.312 6.38652L360.644 9.62327L361.957 9.08326L360.625 5.84651L359.293 2.60976L357.981 3.14977L359.312 6.38652ZM360.625 5.84651L361.957 9.08326L363.269 8.54325L361.938 5.3065L360.606 2.06976L359.293 2.60976L360.625 5.84651ZM361.938 5.3065L363.269 8.54325C363.821 8.31605 364.326 8.20282 364.794 8.17177L364.562 4.67944L364.331 1.18711C363.049 1.27214 361.804 1.57695 360.606 2.06976L361.938 5.3065ZM364.562 4.67944L364.794 8.17177L366.107 8.08471L365.875 4.59238L365.643 1.10006L364.331 1.18711L364.562 4.67944ZM365.875 4.59238L366.107 8.08471L367.419 7.99765L367.188 4.50533L366.956 1.013L365.643 1.10006L365.875 4.59238ZM367.188 4.50533L367.419 7.99765C368.326 7.93747 369.234 7.86465 370.141 7.77921L369.812 4.29463L369.484 0.810059C368.641 0.889461 367.799 0.957106 366.956 1.013L367.188 4.50533ZM369.812 4.29463L370.141 7.77921L371.453 7.65557L371.125 4.171L370.797 0.686421L369.484 0.810059L369.812 4.29463ZM371.125 4.171L371.453 7.65557L372.766 7.53193L372.438 4.04736L372.109 0.562784L370.797 0.686421L371.125 4.171ZM372.438 4.04736L372.766 7.53193C373.502 7.46255 374.238 7.43744 374.972 7.45638L375.062 3.95754L375.153 0.458698C374.137 0.432541 373.123 0.467314 372.109 0.562784L372.438 4.04736ZM375.062 3.95754L374.972 7.45638L376.285 7.49019L376.375 3.99135L376.465 0.492515L375.153 0.458698L375.062 3.95754ZM376.375 3.99135L376.285 7.49019L377.597 7.52401L377.688 4.02517L377.778 0.526332L376.465 0.492515L376.375 3.99135ZM377.688 4.02517L377.597 7.52401C377.908 7.53202 378.047 7.60085 378.122 7.64835L380 4.69482L381.878 1.7413C380.619 0.941013 379.217 0.563405 377.778 0.526332L377.688 4.02517ZM380 4.69482L378.122 7.64835L379.122 8.28418L381 5.33066L382.878 2.37713L381.878 1.7413L380 4.69482ZM381 5.33066L379.122 8.28418L380.122 8.92001L382 5.96649L383.878 3.01296L382.878 2.37713L381 5.33066ZM382 5.96649L380.122 8.92001C380.474 9.14385 381.004 9.46568 381.564 9.66731C381.723 9.72479 382.56 10.0429 383.594 9.84548C384.24 9.72219 385.101 9.36575 385.753 8.52238C386.379 7.71302 386.5 6.85646 386.5 6.32674H383H379.5C379.5 5.84296 379.611 5.02283 380.216 4.24041C380.847 3.42398 381.677 3.08499 382.281 2.96966C382.831 2.86468 383.268 2.92326 383.468 2.95855C383.693 2.99833 383.858 3.05329 383.936 3.08163C384.163 3.16317 384.193 3.21302 383.878 3.01296L382 5.96649ZM383 6.32674H386.5V6.05116H383H379.5V6.32674H383ZM383 6.05116L386.444 5.42634L386.344 4.87518L382.9 5.5L379.456 6.12482L379.556 6.67598L383 6.05116ZM382.9 5.5V9H383V5.5V2H382.9V5.5Z" fill="#A2FF3F"/>
</svg>
