<svg width="332" height="349" viewBox="0 0 332 349" fill="none" xmlns="http://www.w3.org/2000/svg">
<path d="M174.222 348.536C77.976 348.51 -0.0258614 270.466 6.43209e-06 174.222C0.0258743 77.9767 78.0693 -0.0258614 174.315 6.43204e-06C240.046 0.0177055 300.174 37.0183 329.813 95.6873C335.052 106.518 330.518 119.544 319.688 124.782C309.135 129.885 296.437 125.724 290.952 115.365C258.424 50.9257 179.816 25.0565 115.376 57.5846C50.9366 90.1128 25.0673 168.721 57.5955 233.16C90.1237 297.6 168.731 323.469 233.171 290.941C258.004 278.406 278.19 258.274 290.792 233.475C296.251 222.752 309.368 218.484 320.091 223.942C330.815 229.4 335.083 242.517 329.625 253.24C300.003 311.828 239.872 348.702 174.222 348.536Z" fill="#70F815"/>
</svg>
