<svg width="38" height="38" viewBox="0 0 38 38" fill="none" xmlns="http://www.w3.org/2000/svg">
<path d="M31.6667 38H28.5C25.0008 38 22.1667 35.1658 22.1667 31.6667V20.5833C22.1667 17.0842 25.0008 14.25 28.5 14.25H31.6667C35.1658 14.25 38 17.0842 38 20.5833V31.6667C38 35.1658 35.1658 38 31.6667 38ZM19 22.1667H14.25L13.8542 21.7075C13.2525 20.995 12.3658 20.5833 11.4317 20.5833H3.95833C1.77333 20.5833 0 22.3567 0 24.5417C0 26.7267 1.77333 28.5 3.95833 28.5H19V22.1667ZM11.4475 17.4167C12.9992 17.4167 14.4875 17.9867 15.6433 19H19.1583C19.9183 14.5192 23.8133 11.0833 28.5158 11.0833H31.6825C32.7908 11.0833 33.8517 11.2892 34.8492 11.6375V7.91667C34.8492 3.54667 31.3025 0 26.9325 0H11.0833C6.71333 0 3.16667 3.54667 3.16667 7.91667V17.5908C3.67333 17.48 4.21167 17.4167 4.75 17.4167H11.4475Z" fill="#131313"/>
</svg>
