<svg width="27" height="32" viewBox="0 0 27 32" fill="none" xmlns="http://www.w3.org/2000/svg">
<path d="M25.8592 4.36267L22.7758 1.21733C22.3972 0.833287 21.9447 0.527787 21.4449 0.318748C20.945 0.10971 20.408 0.00134191 19.8652 0L13.5 0C11.9445 0.00193937 10.4373 0.533453 9.23231 1.50496C8.02734 2.47646 7.19833 3.82855 6.885 5.33333H6.75C4.96045 5.33545 3.2448 6.03851 1.9794 7.28829C0.71399 8.53808 0.00214361 10.2325 0 12V25.3333C0.00214361 27.1008 0.71399 28.7953 1.9794 30.045C3.2448 31.2948 4.96045 31.9979 6.75 32H14.85C16.6395 31.9979 18.3552 31.2948 19.6206 30.045C20.886 28.7953 21.5979 27.1008 21.6 25.3333V25.2C23.1236 24.8905 24.4926 24.0718 25.4762 22.8817C26.4599 21.6916 26.998 20.2029 27 18.6667V7.14667C27.002 6.10722 26.5927 5.10816 25.8592 4.36267ZM14.85 29.3333H6.75C5.67587 29.3333 4.64574 28.9119 3.88622 28.1618C3.12669 27.4116 2.7 26.3942 2.7 25.3333V12C2.7 10.9391 3.12669 9.92172 3.88622 9.17157C4.64574 8.42143 5.67587 8 6.75 8V18.6667C6.75214 20.4341 7.46399 22.1286 8.72939 23.3784C9.9948 24.6282 11.7104 25.3312 13.5 25.3333H18.9C18.9 26.3942 18.4733 27.4116 17.7138 28.1618C16.9543 28.9119 15.9241 29.3333 14.85 29.3333ZM20.25 22.6667H13.5C12.4259 22.6667 11.3957 22.2452 10.6362 21.4951C9.87669 20.7449 9.45 19.7275 9.45 18.6667V6.66667C9.45 5.6058 9.87669 4.58839 10.6362 3.83824C11.3957 3.08809 12.4259 2.66667 13.5 2.66667H18.9V5.33333C18.9 6.04058 19.1845 6.71885 19.6908 7.21895C20.1972 7.71905 20.8839 8 21.6 8H24.3V18.6667C24.3 19.7275 23.8733 20.7449 23.1138 21.4951C22.3543 22.2452 21.3241 22.6667 20.25 22.6667Z" fill="black"/>
</svg>
