<?xml version="1.0" encoding="UTF-8"?>
<svg xmlns="http://www.w3.org/2000/svg" id="Layer_1" data-name="Layer 1" viewBox="0 0 24 24">
  <path d="M11.994,1C4.819,1,1,5.106,1,12.019c0,6.859,3.851,10.981,11.006,10.981s10.861-3.737,10.994-11.017c-.122-7.037-4.026-10.983-11.006-10.983ZM6.587,9.477c.024-1.215,.777-1.92,2.015-1.927,1.229,.007,1.999,.735,2.022,1.899-.024,1.213-.775,1.918-2.012,1.927h-.014c-1.236-.009-1.988-.719-2.012-1.899Zm9.591,7.968c-.196,.198-.454,.297-.712,.297-.254,0-.508-.096-.702-.289-1.892-1.867-3.599-1.862-5.535,.008-.397,.383-1.03,.373-1.414-.025-.384-.397-.372-1.03,.025-1.414,2.714-2.62,5.671-2.615,8.328,.008,.394,.388,.397,1.021,.01,1.414Zm-.776-6.069h-.014c-1.236-.009-1.988-.719-2.012-1.899,.024-1.215,.777-1.92,2.015-1.927,1.229,.007,1.999,.735,2.022,1.899-.024,1.213-.775,1.918-2.012,1.927Z" fill="white"/>
</svg>
