<?xml version="1.0" encoding="UTF-8"?>
<svg xmlns="http://www.w3.org/2000/svg" id="Layer_1" data-name="Layer 1" viewBox="0 0 24 24">
  <path d="M11.994,1C4.819,1,1,5.106,1,12.019c0,6.859,3.851,10.981,11.006,10.981s10.861-3.737,10.994-11.017c-.122-7.037-4.026-10.983-11.006-10.983ZM6.587,10.477c.024-1.215,.777-1.92,2.015-1.927,1.229,.007,1.999,.735,2.022,1.899-.024,1.213-.775,1.918-2.012,1.927h-.014c-1.236-.009-1.988-.719-2.012-1.899Zm9.573,6.299c-1.355,1.308-2.771,1.962-4.181,1.962s-2.818-.657-4.148-1.97c-.393-.388-.396-1.021-.009-1.414,.389-.394,1.021-.396,1.415-.009,1.888,1.865,3.596,1.863,5.534-.008,.398-.383,1.03-.372,1.414,.025s.372,1.03-.025,1.414Zm-.759-4.4h-.014c-1.236-.009-1.988-.719-2.012-1.899,.024-1.215,.777-1.92,2.015-1.927,1.229,.007,1.999,.735,2.022,1.899-.024,1.213-.775,1.918-2.012,1.927Z" fill="#FFFFFF"/>
</svg>
