<svg width="85" height="19" viewBox="0 0 85 19" fill="none" xmlns="http://www.w3.org/2000/svg">
<path d="M7.35363 5.34852C7.85263 3.72742 10.1474 3.72742 10.6464 5.34852C10.8688 6.07121 11.544 6.56434 12.3002 6.56434C13.9955 6.56434 14.7557 8.71457 13.4105 9.74628L13.2594 9.86214C12.6643 10.3185 12.4158 11.0969 12.6365 11.8136L12.7145 12.0671C13.2043 13.6585 11.3616 14.9398 10.0403 13.9265C9.42662 13.4559 8.57338 13.4559 7.95969 13.9265C6.63843 14.9398 4.79567 13.6585 5.28553 12.0671L5.36354 11.8136C5.58417 11.0969 5.33572 10.3185 4.74063 9.86214L4.58955 9.74628C3.24427 8.71457 4.00447 6.56434 5.69981 6.56434C6.45597 6.56434 7.13117 6.07121 7.35363 5.34852Z" fill="url(#paint0_linear_248_2)"/>
<path d="M23.7745 5.31066C24.3176 3.63909 26.6824 3.63909 27.2255 5.31066C27.4684 6.05821 28.1651 6.56434 28.9511 6.56434C30.7087 6.56434 31.4394 8.81342 30.0175 9.84651C29.3816 10.3085 29.1155 11.1275 29.3584 11.875C29.9015 13.5466 27.9884 14.9366 26.5664 13.9035C25.9305 13.4415 25.0695 13.4415 24.4336 13.9035C23.0116 14.9366 21.0985 13.5466 21.6416 11.875C21.8845 11.1275 21.6184 10.3085 20.9825 9.84651C19.5606 8.81342 20.2913 6.56434 22.0489 6.56434C22.8349 6.56434 23.5316 6.05821 23.7745 5.31066Z" fill="url(#paint1_linear_248_2)"/>
<path d="M41.1856 5.30486C41.7737 3.58535 44.2263 3.58535 44.8144 5.30486C45.0706 6.05389 45.7771 6.56434 46.5687 6.56434H46.732C48.4986 6.56434 49.2087 8.84333 47.7548 9.84682C47.0912 10.3049 46.8144 11.1527 47.0754 11.9157C47.6467 13.586 45.762 15.035 44.3091 14.0322L44.0899 13.8809C43.4338 13.4281 42.5662 13.4281 41.9101 13.8809L41.6909 14.0322C40.238 15.035 38.3533 13.586 38.9246 11.9157C39.1856 11.1527 38.9088 10.3049 38.2452 9.84682C36.7913 8.84333 37.5014 6.56434 39.268 6.56434H39.4313C40.2229 6.56434 40.9294 6.05389 41.1856 5.30486Z" fill="url(#paint2_linear_248_2)"/>
<path d="M56.7745 5.31066C57.3176 3.63909 59.6824 3.63909 60.2255 5.31066C60.4684 6.05821 61.1651 6.56434 61.9511 6.56434C63.7087 6.56434 64.4394 8.81342 63.0175 9.84651C62.3816 10.3085 62.1155 11.1275 62.3584 11.875C62.9015 13.5466 60.9884 14.9366 59.5664 13.9035C58.9305 13.4415 58.0695 13.4415 57.4336 13.9035C56.0116 14.9366 54.0985 13.5466 54.6416 11.875C54.8845 11.1275 54.6184 10.3085 53.9825 9.84651C52.5606 8.81342 53.2913 6.56434 55.0489 6.56434C55.8349 6.56434 56.5316 6.05821 56.7745 5.31066Z" fill="url(#paint3_linear_248_2)"/>
<path d="M74.3536 5.34852C74.8526 3.72742 77.1474 3.72742 77.6464 5.34852C77.8688 6.07121 78.544 6.56434 79.3002 6.56434C80.9955 6.56434 81.7557 8.71457 80.4105 9.74628L80.2594 9.86214C79.6643 10.3185 79.4158 11.0969 79.6365 11.8136L79.7145 12.0671C80.2043 13.6585 78.3616 14.9398 77.0403 13.9265C76.4266 13.4559 75.5734 13.4559 74.9597 13.9265C73.6384 14.9398 71.7957 13.6585 72.2855 12.0671L72.3635 11.8136C72.5842 11.0969 72.3357 10.3185 71.7406 9.86214L71.5895 9.74628C70.2443 8.71457 71.0045 6.56434 72.6998 6.56434C73.456 6.56434 74.1312 6.07121 74.3536 5.34852Z" fill="#3B3B3B"/>
<defs>
<linearGradient id="paint0_linear_248_2" x1="9" y1="0" x2="9" y2="19" gradientUnits="userSpaceOnUse">
<stop stop-color="#FFD505"/>
<stop offset="1" stop-color="#FF9604"/>
</linearGradient>
<linearGradient id="paint1_linear_248_2" x1="25.5" y1="0" x2="25.5" y2="19" gradientUnits="userSpaceOnUse">
<stop stop-color="#FFD505"/>
<stop offset="1" stop-color="#FF9604"/>
</linearGradient>
<linearGradient id="paint2_linear_248_2" x1="43" y1="0" x2="43" y2="19" gradientUnits="userSpaceOnUse">
<stop stop-color="#FFD505"/>
<stop offset="1" stop-color="#FF9604"/>
</linearGradient>
<linearGradient id="paint3_linear_248_2" x1="58.5" y1="0" x2="58.5" y2="19" gradientUnits="userSpaceOnUse">
<stop stop-color="#FFD505"/>
<stop offset="1" stop-color="#FF9604"/>
</linearGradient>
</defs>
</svg>
