<svg width="38" height="41" viewBox="0 0 38 41" fill="none" xmlns="http://www.w3.org/2000/svg">
<path d="M24.1818 1.82344V13.3664C24.1818 16.1419 22.0815 18.6319 19.2781 18.7772C16.2899 18.9327 13.8182 16.5811 13.8182 13.6569V1.82344C13.8182 0.449358 12.3604 -0.405167 11.1115 0.19471C4.56864 3.33765 0 9.91408 0 17.1998C0 24.2855 3.96409 30.6978 10.3429 33.9348C11.4035 34.4731 12.0909 35.6387 12.0909 36.9017V39.291C12.0909 40.2343 12.8647 41 13.8182 41H24.1818C25.1353 41 25.9091 40.2343 25.9091 39.291V36.9017C25.9091 35.6387 26.5948 34.4731 27.6571 33.9348C34.0359 30.6978 38 24.2855 38 17.1998C38 9.91408 33.4314 3.33765 26.8885 0.19471C25.6396 -0.405167 24.1818 0.451068 24.1818 1.82344Z" fill="#131313"/>
</svg>
