<svg width="38" height="39" viewBox="0 0 38 39" fill="none" xmlns="http://www.w3.org/2000/svg">
<path d="M37.0722 25.9089L23.3383 19.5581C23.2908 19.5355 23.2433 19.5178 23.1958 19.5001C22.0432 19.1008 20.7923 19.3954 19.931 20.2714C19.0697 21.1474 18.7799 22.4195 19.2312 23.7351L25.4758 37.704C25.7276 38.2692 26.277 38.6363 26.8882 38.6476H26.9182C27.5167 38.6476 28.0662 38.303 28.3353 37.7571L31.2661 31.796L37.1276 28.8154C37.6738 28.5368 38.0142 27.9668 38.0032 27.3452C37.9921 26.7253 37.6311 26.1665 37.0753 25.9089H37.0722ZM20.444 35.3594C20.1717 35.3836 19.8977 35.4013 19.6207 35.4126C18.563 34.3482 15.8048 31.358 13.8827 27.3742H15.0417C15.9157 27.3742 16.625 26.6544 16.625 25.764C16.625 24.8735 15.9157 24.1537 15.0417 24.1537H12.6192C12.1584 22.6208 11.875 20.9976 11.875 19.323C11.875 17.6483 12.16 16.0268 12.6223 14.4922H25.3792C25.5661 15.1154 25.7244 15.7531 25.8463 16.4036C26.011 17.278 26.8422 17.8544 27.6972 17.6837C28.5554 17.5179 29.1191 16.6741 28.956 15.8014C28.8737 15.3585 28.7755 14.9222 28.6662 14.4922H34.0385C34.0591 14.4922 34.0812 14.4922 34.1018 14.4922C34.5752 16.0187 34.8302 17.6419 34.8302 19.3246C34.8302 19.8189 34.808 20.3068 34.7653 20.7899C34.6877 21.6756 35.3289 22.4581 36.1997 22.5386C37.0737 22.6256 37.8417 21.9654 37.9192 21.0798C37.9699 20.5017 37.9968 19.9156 37.9968 19.3246C38 8.66797 29.4769 0 19 0C8.52308 0 0 8.66796 0 19.323C0 29.978 8.52308 38.646 18.9984 38.646C19.5795 38.646 20.1542 38.6186 20.7211 38.5671C21.5919 38.4881 22.2363 37.7072 22.1587 36.8199C22.0812 35.9359 21.3164 35.2821 20.444 35.3594ZM9.329 24.1537H3.95833C3.93775 24.1537 3.91717 24.1537 3.895 24.1537C3.42158 22.6272 3.16667 21.0041 3.16667 19.3214C3.16667 17.6387 3.42158 16.0155 3.895 14.489C3.91558 14.489 3.93617 14.489 3.95833 14.489H9.329C8.94108 16.0268 8.70833 17.6435 8.70833 19.3198C8.70833 20.996 8.9395 22.6127 9.329 24.1505V24.1537ZM13.8906 11.2717C15.5072 7.92725 17.7143 5.27517 19.0032 3.88392C20.2936 5.27356 22.5007 7.92081 24.1173 11.2717H13.8906ZM32.7085 11.2717H27.5975C26.3451 8.23481 24.6082 5.65519 23.1135 3.77281C27.1969 4.89193 30.6327 7.63258 32.7085 11.2717ZM14.8833 3.77442C13.3887 5.6568 11.6502 8.23642 10.3993 11.2717H5.2915C7.36567 7.63258 10.7999 4.89193 14.8833 3.77442ZM5.2915 27.3742H10.3993C11.6502 30.4111 13.3887 32.9892 14.8833 34.8715C10.8015 33.7524 7.36725 31.0118 5.2915 27.3742Z" fill="#131313"/>
</svg>
